<svg width="806" height="466" viewBox="0 0 806 466" fill="none" xmlns="http://www.w3.org/2000/svg">
<g id="full">
<path id="background" d="M35.5 465.5L1 21L301.5 0.5L308.5 91.5L806 115V465.5H35.5Z" fill="#A9BCE6"/>
<g id="rooms">
<path id="room_1" d="M192 18.5L12.5 29.5L21.5 142L201 127.5L192 18.5Z" fill="#D9D9D9" fill-opacity="0.7" stroke="#3A4A6B" stroke-width="4"/>
<path id="room_2" d="M204.5 141.5L23.5 160.5L32.5 287L215 268L204.5 141.5Z" fill="#D9D9D9" fill-opacity="0.7" stroke="#3A4A6B" stroke-width="4"/>
<path id="room_3" d="M216.5 285.5L34.5 309L46 453.5H231.5L216.5 285.5Z" fill="#D9D9D9" fill-opacity="0.7" stroke="#3A4A6B" stroke-width="4"/>
<path id="room_4" d="M289 12L214 16.5L221.5 112.5H296.5L289 12Z" fill="#D9D9D9" fill-opacity="0.7" stroke="#3A4A6B" stroke-width="4"/>
<path id="room_5" d="M547.5 113.5L444 110.5L441 170L545 176L547.5 113.5Z" fill="#D9D9D9" fill-opacity="0.7" stroke="#3A4A6B" stroke-width="4"/>
<path id="room_7" d="M794 124L675.5 120.5L673 237L794 242.5V124Z" fill="#D9D9D9" fill-opacity="0.7" stroke="#3A4A6B" stroke-width="4"/>
<path id="room_6" d="M558.5 234.5L669 238L670 118L561.5 113.5L558.5 234.5Z" fill="#D9D9D9" fill-opacity="0.7" stroke="#3A4A6B" stroke-width="4"/>
<path id="room_8" d="M352 388H246L251.5 454.5H352V388Z" fill="#D9D9D9" fill-opacity="0.7" stroke="#3A4A6B" stroke-width="4"/>
<path id="room_9" d="M475.5 391.5L367.5 389.5V453.5H475.5V391.5Z" fill="#D9D9D9" fill-opacity="0.7" stroke="#3A4A6B" stroke-width="4"/>
<path id="room_10" d="M586.5 347.5H481.5V453.5H586.5V347.5Z" fill="#D9D9D9" fill-opacity="0.7" stroke="#3A4A6B" stroke-width="4"/>
<path id="room_11" d="M681 295.5L602.5 293.5V454H678.5L681 295.5Z" fill="#D9D9D9" fill-opacity="0.7" stroke="#3A4A6B" stroke-width="4"/>
<path id="room_12" d="M794.5 298L695.5 295L692 454.5H794.5V298Z" fill="#D9D9D9" fill-opacity="0.7" stroke="#3A4A6B" stroke-width="4"/>
</g>
<g id="walls" stroke="#3A4A6B" stroke-width="4" stroke-linejoin="round">
<path id="wall" d="M805 464L795 455L45 454.5L34 464H805Z" fill="#3A4A6B"/>
<path id="wall_2" d="M0 18L34 464L45 454.5L11.5 28.5L0 18Z" fill="#3A4A6B"/>
<path id="wall_3" d="M300 0L0 18L11.5 28.5L290 11L300 0Z" fill="#3A4A6B"/>
<path id="wall_4" d="M307 92L300 0L290 11L297 103L307 92Z" fill="#3A4A6B"/>
<path id="wall_5" d="M805 114L307 92L297 103L795 123L805 114Z" fill="#3A4A6B"/>
<path id="wall_6" d="M805 464V114L795 123V455L805 464Z" fill="#3A4A6B"/>
<g id="wall_7">
<path d="M250.5 454.5H232.5L217.151 284.5L33.5 308L32 288L215.752 269L204.15 140.5L22 159.5L20.5 143L203.054 128.357L193 17L213 16L234.551 268L291 269.108L297 103L314.5 104L309 269.461L422 271.679L428 108L443.5 109L439 272.013L539.5 273.985L548.5 113L561.5 113.5L557 274.329L795 279V297.5L695 295.353L691.5 455H679.5L682 295.074L601.5 293.346V455.5H587.5L586 293.013L367.5 288.322L366.5 455H353.5V288.022L236.047 285.5L250.5 454.5Z" fill="#3A4A6B"/>
<path d="M476 346.5H480.5V455H476.5L476 346.5Z" fill="#3A4A6B"/>
</g>
<path id="wall_8" d="M669 238L670 118H675L672.5 238H669Z" fill="#3A4A6B"/>
</g>
</g>
</svg>
