<svg width="806" height="466" viewBox="0 0 806 466" fill="none" xmlns="http://www.w3.org/2000/svg">
<g id="map" clip-path="url(#clip0_3_3)">
<g id="full">
<path id="background" d="M35.5 465.5L1 21L301.5 0.5L308.5 91.5L806 115V465.5H35.5Z" fill="#A9BCE6"/>
<g id="rooms">
<path id="room_1" d="M192 18.5L12.5 29.5L21.5 142L201 127.5L192 18.5Z" fill="#D9D9D9" fill-opacity="0.7" stroke="#3A4A6B" stroke-width="4"/>
<path id="room_2" d="M204.5 141.5L23.5 160.5L32.5 287L215 268L204.5 141.5Z" fill="#D9D9D9" fill-opacity="0.7" stroke="#3A4A6B" stroke-width="4"/>
<path id="room_3" d="M216.5 285.5L34.5 309L46 453.5H231.5L216.5 285.5Z" fill="#D9D9D9" fill-opacity="0.7" stroke="#3A4A6B" stroke-width="4"/>
<path id="room_4" d="M289 12L214 16.5L221.5 112.5H296.5L289 12Z" fill="#D9D9D9" fill-opacity="0.7" stroke="#3A4A6B" stroke-width="4"/>
<path id="room_5" d="M547.5 113.5L444 110.5L441 170L545 176L547.5 113.5Z" fill="#D9D9D9" fill-opacity="0.7" stroke="#3A4A6B" stroke-width="4"/>
<path id="room_7" d="M794 124L675.5 120.5L673 237L794 242.5V124Z" fill="#D9D9D9" fill-opacity="0.7" stroke="#3A4A6B" stroke-width="4"/>
<path id="room_6" d="M558.5 234.5L669 238L670 118L561.5 113.5L558.5 234.5Z" fill="#D9D9D9" fill-opacity="0.7" stroke="#3A4A6B" stroke-width="4"/>
<path id="room_8" d="M352 388H246L251.5 454.5H352V388Z" fill="#D9D9D9" fill-opacity="0.7" stroke="#3A4A6B" stroke-width="4"/>
<path id="room_9" d="M475.5 391.5L367.5 389.5V453.5H475.5V391.5Z" fill="#D9D9D9" fill-opacity="0.7" stroke="#3A4A6B" stroke-width="4"/>
<path id="room_10" d="M586.5 347.5H481.5V453.5H586.5V347.5Z" fill="#D9D9D9" fill-opacity="0.7" stroke="#3A4A6B" stroke-width="4"/>
<path id="room_11" d="M681 295.5L602.5 293.5V454H678.5L681 295.5Z" fill="#D9D9D9" fill-opacity="0.7" stroke="#3A4A6B" stroke-width="4"/>
<path id="room_12" d="M794.5 298L695.5 295L692 454.5H794.5V298Z" fill="#D9D9D9" fill-opacity="0.7" stroke="#3A4A6B" stroke-width="4"/>
</g>
<g id="walls">
<path id="wall" d="M805 464L795 455L45 454.5L34 464H805Z" fill="#3A4A6B" stroke="#3A4A6B" stroke-width="4" stroke-linejoin="round"/>
<path id="wall_2" d="M0 18L34 464L45 454.5L11.5 28.5L0 18Z" fill="#3A4A6B" stroke="#3A4A6B" stroke-width="4" stroke-linejoin="round"/>
<path id="wall_3" d="M300 0L0 18L11.5 28.5L290 11L300 0Z" fill="#3A4A6B" stroke="#3A4A6B" stroke-width="4" stroke-linejoin="round"/>
<path id="wall_4" d="M307 92L300 0L290 11L297 103L307 92Z" fill="#3A4A6B" stroke="#3A4A6B" stroke-width="4" stroke-linejoin="round"/>
<path id="wall_5" d="M805 114L307 92L297 103L795 123L805 114Z" fill="#3A4A6B" stroke="#3A4A6B" stroke-width="4" stroke-linejoin="round"/>
<path id="wall_6" d="M805 464V114L795 123V455L805 464Z" fill="#3A4A6B" stroke="#3A4A6B" stroke-width="4" stroke-linejoin="round"/>
<g id="wall_7">
<path id="Vector" d="M250.5 454.5H232.5L217.151 284.5L33.5 308L32 288L215.752 269L204.15 140.5L22 159.5L20.5 143L203.054 128.357L193 17L213 16L234.551 268L291 269.108L297 103L314.5 104L309 269.461L422 271.679L428 108L443.5 109L439 272.013L539.5 273.985L548.5 113L561.5 113.5L557 274.329L795 279V297.5L695 295.353L691.5 455H679.5L682 295.074L601.5 293.346V455.5H587.5L586 293.013L367.5 288.322L366.5 455H353.5V288.022L236.047 285.5L250.5 454.5Z" fill="#3A4A6B" stroke="#3A4A6B" stroke-width="4" stroke-linejoin="round"/>
<path id="Vector_2" d="M476 346.5H480.5V455H476.5L476 346.5Z" fill="#3A4A6B" stroke="#3A4A6B" stroke-width="4" stroke-linejoin="round"/>
</g>
<path id="wall_8" d="M669 238L670 118H675L672.5 238H669Z" fill="#3A4A6B" stroke="#3A4A6B" stroke-width="4" stroke-linejoin="round"/>
</g>
</g>
<g id="stairs">
<rect id="Rectangle 1" x="388.005" y="169.263" width="40.3395" height="37.3313" transform="rotate(92.51 388.005 169.263)" fill="#3A4A6B"/>
<path id="Vector 1" d="M387.25 189L423 190M387.25 189L386.938 195.625M387.25 189L387.562 182.375M423 190L422.75 196.625M423 190L423.25 183.375M387.875 175.75L423.5 176.75M387.875 175.75L387.562 182.375M387.875 175.75L388.188 169.125M423.5 176.75L423.25 183.375M423.5 176.75L423.75 170.125M386.625 202.25L422.5 203.25M386.625 202.25L386.312 208.875M386.625 202.25L386.938 195.625M422.5 203.25L422.25 209.875M422.5 203.25L422.75 196.625M386.312 208.875L386 215.5L422 216.5L422.25 209.875M386.312 208.875L422.25 209.875M386.938 195.625L422.75 196.625M387.562 182.375L423.25 183.375M388.188 169.125L388.5 162.5L424 163.5L423.75 170.125M388.188 169.125L423.75 170.125" stroke="black" stroke-width="0.5"/>
<path id="Vector 2" d="M349.5 187.5L313.75 186M349.5 187.5L349.25 194.125M349.5 187.5L349.75 180.875M313.75 186L313.562 192.625M313.75 186L313.938 179.375M314.125 172.75L350 174.25M314.125 172.75L313.938 179.375M314.125 172.75L314.312 166.125M350 174.25L349.75 180.875M350 174.25L350.25 167.625M313.375 199.25L349 200.75M313.375 199.25L313.188 205.875M313.375 199.25L313.562 192.625M349 200.75L348.75 207.375M349 200.75L349.25 194.125M313.188 205.875L313 212.5L348.5 214L348.75 207.375M313.188 205.875L348.75 207.375M313.562 192.625L349.25 194.125M313.938 179.375L349.75 180.875M314.312 166.125L314.5 159.5L350.5 161L350.25 167.625M314.312 166.125L350.25 167.625" stroke="black" stroke-width="0.5"/>
<path id="Arrow 1" d="M406.747 163.335C406.379 162.922 405.747 162.886 405.335 163.253L398.615 169.24C398.202 169.608 398.166 170.24 398.533 170.652C398.901 171.064 399.533 171.101 399.945 170.734L405.919 165.412L411.24 171.385C411.608 171.798 412.24 171.834 412.652 171.467C413.064 171.099 413.101 170.467 412.734 170.055L406.747 163.335ZM403 216L403.998 216.058L406.998 164.058L406 164L405.002 163.942L402.002 215.942L403 216Z" fill="black"/>
<path id="Arrow 2" d="M329.253 212.665C329.621 213.078 330.253 213.114 330.665 212.747L337.385 206.76C337.798 206.392 337.834 205.76 337.467 205.348C337.099 204.936 336.467 204.899 336.055 205.266L330.081 210.588L324.76 204.615C324.392 204.202 323.76 204.166 323.348 204.533C322.936 204.901 322.899 205.533 323.266 205.945L329.253 212.665ZM333 160L332.002 159.942L329.002 211.942L330 212L330.998 212.058L333.998 160.058L333 160Z" fill="black"/>
</g>
</g>
<defs>
<clipPath id="clip0_3_3">
<rect width="806" height="466" fill="white"/>
</clipPath>
</defs>
</svg>
